<svg id="Capa_1" enable-background="new 0 0 510.003 510.003" height="400" viewBox="0 0 510.003 510.003" width="400" xmlns="http://www.w3.org/2000/svg"><g id="XMLID_854_"><path id="XMLID_853_" d="m210.001 450v15c0 24.853 20.146 45 45 45l15-30-15-30-22.5-15z" fill="#fd676a"/><path id="XMLID_852_" d="m300.001 465c0-5.246 0-9.753 0-15l-22.5-15-22.5 15v60c.274-.058 17.547 1.093 31.82-13.18 8.144-8.143 13.18-19.393 13.18-31.82z" fill="#e4336d"/><path id="XMLID_849_" d="m225.001 30v45c-60.386 13.704-105 67.672-105 131.649 0 .258 0 3.504 0 3.351l15 15-15 15v30l15 15-15 15c0 .141 0 2.71 0 2.566 0 33.787-16.886 65.34-45 84.083v63.351h180l15-225-15-225c-16.568 0-30 13.431-30 30z" fill="#fee05b"/><path id="XMLID_823_" d="m435.001 386.649c-1.427-1.237-20.006-12.041-33.043-36.399-7.736-14.455-11.957-30.789-11.957-47.684 0-.141 0-2.709 0-2.566l-15-15 15-15c0-10.492 0-19.507 0-30l-15-15 15-15c-.34-1.988 3.688-46.04-29.463-87.539-18.766-23.492-45.213-40.58-75.537-47.461 0-14.981 0-30.019 0-45 0-16.568-13.431-30-30-30v450h180c0-3.514 0-59.836 0-63.351z" fill="#fec258"/><path id="XMLID_784_" d="m120.001 210v30h135l15-15-15-15c-16.333 0-118.559 0-135 0z" fill="#fec258"/><path id="XMLID_782_" d="m390.001 210c-16.333 0-118.559 0-135 0v30h135c0-10.492 0-19.507 0-30z" fill="#fd996b"/><path id="XMLID_763_" d="m120.001 270v30h135l15-15-15-15c-16.333 0-118.559 0-135 0z" fill="#fec258"/><path id="XMLID_762_" d="m390.001 270c-16.333 0-118.559 0-135 0v30h135c0-10.492 0-19.507 0-30z" fill="#fd996b"/><path id="XMLID_883_" d="m90.001 105c-10.492 0-19.508 0-30 0 0-24.812 20.186-45 45-45v30c-8.271 0-15 6.729-15 15z" fill="#7ed8f6"/><path id="XMLID_875_" d="m30.001 105c-10.492 0-19.508 0-30 0 0-57.895 47.102-105 105-105v30c-41.354 0-75 33.644-75 75z" fill="#7ed8f6"/><g fill="#6aa9ff"><path id="XMLID_752_" d="m405.001 60v30c8.27 0 15 6.729 15 15h30c0-24.812-20.186-45-45-45z"/><path id="XMLID_733_" d="m480.001 105h30c0-57.895-47.101-105-105-105v30c41.354 0 75 33.644 75 75z"/></g></g></svg>