<?xml version="1.0" encoding="iso-8859-1"?>
<!-- Generator: Adobe Illustrator 19.0.0, SVG Export Plug-In . SVG Version: 6.00 Build 0)  -->
<svg version="1.1" id="Layer_1" xmlns="http://www.w3.org/2000/svg" xmlns:xlink="http://www.w3.org/1999/xlink" x="0px" y="0px"
	 viewBox="0 0 512 512" style="enable-background:new 0 0 512 512;" xml:space="preserve">
<path style="fill:#FFD652;" d="M404.309,503.983V67.875c0-16.234-13.16-29.395-29.395-29.395h-8.551
	c-16.234,0-29.395,13.16-29.395,29.395v102.614h-9.62V29.395C327.349,13.16,314.188,0,297.954,0h-8.551
	c-16.234,0-29.395,13.16-29.395,29.395v141.094h-9.62V53.445c0-16.234-13.16-29.395-29.395-29.395h-8.551
	c-16.234,0-29.395,13.16-29.395,29.395v117.044h-9.62V89.787c0-16.234-13.16-29.395-29.395-29.395h-8.551
	c-16.234,0-29.395,13.16-29.395,29.395v414.196c0,4.427,3.589,8.017,8.017,8.017h282.188
	C400.72,512,404.309,508.411,404.309,503.983z"/>
<path style="fill:#FB9D46;" d="M336.969,89.787v80.701h-9.62V89.787h-67.34v80.701h-9.62V89.787h-67.34v80.701h-9.62V89.787h-67.34
	v414.196c0,4.427,3.589,8.017,8.017,8.017h282.188c4.427,0,8.017-3.589,8.017-8.017V89.787H336.969z"/>
<path style="fill:#AFF078;" d="M465.503,103.148H46.497c-4.428,0-8.017,3.589-8.017,8.017v213.779c0,4.427,3.588,8.017,8.017,8.017
	h419.006c4.428,0,8.017-3.589,8.017-8.017V111.165C473.52,106.738,469.932,103.148,465.503,103.148z"/>
<g>
	<path style="fill:#5AC779;" d="M78.564,324.944V111.165c0-4.427,3.588-8.017,8.017-8.017H46.497c-4.428,0-8.017,3.589-8.017,8.017
		v213.779c0,4.427,3.588,8.017,8.017,8.017H86.58C82.152,332.96,78.564,329.371,78.564,324.944z"/>
	<circle style="fill:#5AC779;" cx="256" cy="218.054" r="85.511"/>
</g>
<g>
	<path style="fill:#00A085;" d="M284.86,274.706c-47.227,0-85.511-38.285-85.511-85.512c0-16.216,4.515-31.377,12.354-44.297
		c-24.706,14.992-41.214,42.146-41.214,73.157c0,47.227,38.285,85.511,85.511,85.511c31.011,0,58.165-16.508,73.157-41.214
		C316.238,270.191,301.076,274.706,284.86,274.706z"/>
	<path style="fill:#00A085;" d="M439.85,153.386h-68.409c-4.428,0-8.017-3.589-8.017-8.017s3.588-8.017,8.017-8.017h68.409
		c4.428,0,8.017,3.589,8.017,8.017S444.278,153.386,439.85,153.386z"/>
	<path style="fill:#00A085;" d="M439.85,187.591h-51.307c-4.428,0-8.017-3.589-8.017-8.017s3.588-8.017,8.017-8.017h51.307
		c4.428,0,8.017,3.589,8.017,8.017S444.278,187.591,439.85,187.591z"/>
	<path style="fill:#00A085;" d="M140.56,153.386H72.15c-4.428,0-8.017-3.589-8.017-8.017s3.588-8.017,8.017-8.017h68.409
		c4.428,0,8.017,3.589,8.017,8.017S144.988,153.386,140.56,153.386z"/>
	<path style="fill:#00A085;" d="M123.457,187.591H72.15c-4.428,0-8.017-3.589-8.017-8.017s3.588-8.017,8.017-8.017h51.307
		c4.428,0,8.017,3.589,8.017,8.017S127.886,187.591,123.457,187.591z"/>
	<path style="fill:#00A085;" d="M97.804,307.307H72.15c-4.428,0-8.017-3.589-8.017-8.017c0-4.427,3.588-8.017,8.017-8.017h25.653
		c4.428,0,8.017,3.589,8.017,8.017C105.82,303.718,102.232,307.307,97.804,307.307z"/>
	<path style="fill:#00A085;" d="M157.662,307.307h-25.653c-4.428,0-8.017-3.589-8.017-8.017c0-4.427,3.588-8.017,8.017-8.017h25.653
		c4.428,0,8.017,3.589,8.017,8.017C165.678,303.718,162.09,307.307,157.662,307.307z"/>
	<path style="fill:#00A085;" d="M439.85,307.307h-25.653c-4.428,0-8.017-3.589-8.017-8.017c0-4.427,3.588-8.017,8.017-8.017h25.653
		c4.428,0,8.017,3.589,8.017,8.017C447.866,303.718,444.278,307.307,439.85,307.307z"/>
	<path style="fill:#00A085;" d="M110.63,256c-11.493,0-20.843-9.351-20.843-20.843c0-11.493,9.351-20.843,20.843-20.843
		s20.843,9.351,20.843,20.843C131.474,246.649,122.123,256,110.63,256z M110.63,230.347c-2.652,0-4.81,2.158-4.81,4.81
		c0,2.652,2.158,4.81,4.81,4.81c2.652,0,4.81-2.158,4.81-4.81C115.441,232.505,113.282,230.347,110.63,230.347z"/>
</g>
<path style="fill:#AFF078;" d="M285.929,187.591c4.428,0,8.017-3.589,8.017-8.017s-3.588-8.017-8.017-8.017h-21.912v-9.086
	c0-4.427-3.588-8.017-8.017-8.017c-4.428,0-8.017,3.589-8.017,8.017v9.086h-6.948c-10.314,0-18.706,8.392-18.706,18.706v17.102
	c0,10.314,8.392,18.706,18.706,18.706h6.948v22.447h-21.912c-4.428,0-8.017,3.589-8.017,8.017c0,4.427,3.588,8.017,8.017,8.017
	h21.912v9.086c0,4.427,3.588,8.017,8.017,8.017c4.428,0,8.017-3.589,8.017-8.017v-9.086h6.948c10.314,0,18.706-8.392,18.706-18.706
	v-17.102c0-10.314-8.392-18.706-18.706-18.706h-6.948v-22.447H285.929z M270.965,226.071c1.474,0,2.672,1.199,2.672,2.672v17.102
	c0,1.473-1.198,2.672-2.672,2.672h-6.948v-22.447H270.965z M247.983,210.038h-6.948c-1.474,0-2.672-1.199-2.672-2.672v-17.102
	c0-1.473,1.198-2.672,2.672-2.672h6.948V210.038z"/>
<path style="fill:#FFD652;" d="M404.309,503.983V241.035c0-22.138-17.946-40.084-40.084-40.084h-5.879
	c-22.138,0-40.083,17.946-40.083,40.084v75.357h-97.804c-63.461,0-114.906,51.445-114.906,114.906v72.685
	c0,4.427,3.589,8.017,8.017,8.017h282.722C400.72,512,404.309,508.411,404.309,503.983z"/>
<g>
</g>
<g>
</g>
<g>
</g>
<g>
</g>
<g>
</g>
<g>
</g>
<g>
</g>
<g>
</g>
<g>
</g>
<g>
</g>
<g>
</g>
<g>
</g>
<g>
</g>
<g>
</g>
<g>
</g>
</svg>
